<?xml version="1.0" encoding="utf-8"?>
<svg version="1.1" xmlns="http://www.w3.org/2000/svg" xmlns:xlink="http://www.w3.org/1999/xlink" x="0px" y="0px" width="54.8px"
	 height="54.8px" viewBox="0 0 54.8 54.8" style="enable-background:new 0 0 54.8 54.8;" xml:space="preserve">
<style type="text/css">
	.st2{fill:#ED0000;}
</style>
<g id="Layer_1">
	<path class="st2" d="M47.4,10.2L30.2,27.4l17.2,17.2c4-4.6,6.4-10.6,6.4-17.2S51.4,14.8,47.4,10.2z"/>
	<path class="st2" d="M27.4,24.6L44.6,7.4C40,3.4,34,1,27.4,1c-6.6,0-12.6,2.4-17.2,6.4L27.4,24.6z"/>
	<path class="st2" d="M24.6,27.4L7.4,10.2C3.4,14.8,1,20.8,1,27.4C1,34,3.4,40,7.4,44.6L24.6,27.4z"/>
	<path class="st2" d="M27.4,30.2L10.2,47.4c4.6,4,10.6,6.4,17.2,6.4c6.6,0,12.6-2.4,17.2-6.4L27.4,30.2z"/>
</g>
</svg>
