<?xml version="1.0" encoding="utf-8"?>
<svg version="1.1" xmlns="http://www.w3.org/2000/svg" xmlns:xlink="http://www.w3.org/1999/xlink" x="0px" y="0px" width="36.5px"
	 height="36.5px" viewBox="0 0 36.5 36.5" style="enable-background:new 0 0 36.5 36.5;" xml:space="preserve">
<style type="text/css">
	.st5{fill:#FFFFFF;}
</style>
<g id="Layer_1">
	<path class="st5" d="M22.2,14.3c-1.1-1.1-2.5-1.6-3.9-1.6c-0.4,0-0.9,0.1-1.3,0.2l2.9,2.9c0.5,0.5,0.5,1.3,0,1.8l-2.2,2.2
	c-0.2,0.2-0.6,0.4-0.9,0.4c-0.3,0-0.6-0.1-0.9-0.4L13,16.9c-0.4,1.8,0,3.8,1.4,5.2c1.1,1.1,2.5,1.6,3.9,1.6
	c0.4,0,0.9-0.1,1.3-0.2l9.1,9.1h3.9v-4.1l-9-9C24.1,17.7,23.6,15.7,22.2,14.3z"/>
	<path class="st5" d="M32.6,21.4v-6.2l-4.1-0.2c-0.2-0.5-0.4-1-0.6-1.5l2.7-3.1l-4.4-4.4l-3.1,2.7c-0.5-0.2-1-0.5-1.5-0.6
	l-0.2-4.1h-6.2L14.9,8c-0.5,0.2-1,0.4-1.5,0.6l-3.1-2.7l-4.4,4.4l2.7,3.1c-0.2,0.5-0.5,1-0.6,1.5l-4.1,0.2v6.2L8,21.6
	c0.2,0.5,0.4,1,0.6,1.5l-2.7,3.1l4.4,4.4l3.1-2.7c0.5,0.2,1,0.5,1.5,0.6l0.2,4.1h6.2l0.2-4.1c0.2-0.1,0.5-0.2,0.7-0.3l-3.1-3.1
	c-2.1,0.3-4.3-0.4-5.9-2c-2.7-2.7-2.7-7.2,0-9.9c2.7-2.7,7.2-2.7,9.9,0c1.6,1.6,2.3,3.8,2,5.9l3.1,3.1c0.1-0.2,0.2-0.5,0.3-0.7
	L32.6,21.4z"/>
	<path class="st5" d="M18.3,34.3c-8.8,0-16-7.2-16-16c0-8.8,7.2-16,16-16c8.8,0,16,7.2,16,16c0,2.9-0.8,5.6-2.1,8l0.9,0.9
	c1.6-2.6,2.5-5.6,2.5-8.9C35.5,8.7,27.8,1,18.3,1S1,8.7,1,18.3c0,9.5,7.7,17.3,17.3,17.3c3.2,0,6.3-0.9,8.9-2.5l-0.9-0.9
	C23.9,33.5,21.2,34.3,18.3,34.3z"/>
</g>
</svg>
