<?xml version="1.0" encoding="utf-8"?>
<!-- Generator: Adobe Illustrator 22.0.0, SVG Export Plug-In . SVG Version: 6.00 Build 0)  -->
<svg version="1.1" xmlns="http://www.w3.org/2000/svg" xmlns:xlink="http://www.w3.org/1999/xlink" x="0px" y="0px" width="91.1px"
	 height="60.9px" viewBox="0 0 91.1 60.9" style="enable-background:new 0 0 91.1 60.9;" xml:space="preserve">
<style type="text/css">
	.st1{fill:#00FF85;}
	.st2{fill:#ED0000;}
	.st3{fill:#FFB700;}
	.st4{clip-path:url(#SVGID_2_);}
	.st5{fill:#FFFFFF;}
	.st6{clip-path:url(#SVGID_4_);}
	.st7{clip-path:url(#SVGID_6_);}
	.st8{clip-path:url(#SVGID_8_);}
	.st9{clip-path:url(#SVGID_10_);}
	.st10{clip-path:url(#SVGID_12_);}
	.st11{fill:none;}
</style>
<g id="Layer_3">
	<rect x="-4336.3" y="-7187.3" class="st0" width="7600" height="7944"/>
</g>
<g id="Layer_1">
	<g>
		<g>
			<defs>
				<polygon id="SVGID_1_" points="46.1,41 46.1,22 61.6,22 61.6,-2.8 -2.1,-2.8 -2.1,63.1 61.6,63.1 61.6,41 				"/>
			</defs>
			<clipPath id="SVGID_2_">
				<use xlink:href="#SVGID_1_"  style="overflow:visible;"/>
			</clipPath>
			<g class="st4">
				<g>
					<g>
						<g>
							<path class="st3" d="M58.9,31.5c-0.6,0-1-0.4-1-1C57.9,15.3,45.6,3,30.5,3C15.3,3,3,15.3,3,30.5c0,0.6-0.4,1-1,1s-1-0.4-1-1
								C1,14.2,14.2,1,30.5,1s29.5,13.2,29.5,29.5C59.9,31,59.5,31.5,58.9,31.5z"/>
						</g>
						<g>
							<path class="st5" d="M30.5,6.1c13.4,0,24.4,10.9,24.4,24.4S43.9,54.8,30.5,54.8S6.1,43.9,6.1,30.5S17,6.1,30.5,6.1
								 M30.5,43.6c7.2,0,13.1-5.9,13.1-13.1s-5.9-13.1-13.1-13.1s-13.1,5.9-13.1,13.1S23.3,43.6,30.5,43.6 M30.5,4
								C15.8,4,4,15.8,4,30.5S15.8,57,30.5,57C45.1,57,57,45.1,57,30.5S45.1,4,30.5,4L30.5,4z M30.5,41.4c-6,0-11-4.9-11-11
								s4.9-11,11-11c6,0,11,4.9,11,11S36.5,41.4,30.5,41.4L30.5,41.4z"/>
						</g>
					</g>
				</g>
				<g>
					<path class="st3" d="M30.5,39.5c-5,0-9-4-9-9c0-5,4-9,9-9s9,4,9,9C39.5,35.4,35.4,39.5,30.5,39.5z M30.5,23.5c-3.9,0-7,3.1-7,7
						c0,3.9,3.1,7,7,7s7-3.1,7-7C37.5,26.6,34.3,23.5,30.5,23.5z"/>
				</g>
				<g>
					<path class="st3" d="M55,59.9H5.9C3.2,59.9,1,57.7,1,55V30.5c0-0.6,0.4-1,1-1s1,0.4,1,1V55c0,1.6,1.3,2.9,2.9,2.9H55
						c1.6,0,2.9-1.3,2.9-2.9V30.5c0-0.6,0.4-1,1-1s1,0.4,1,1V55C59.9,57.7,57.7,59.9,55,59.9z"/>
				</g>
			</g>
		</g>
		<g>
			<polygon class="st1" points="90.1,24.9 75.9,24.9 75.9,9.4 63.5,9.4 63.5,24.9 49.3,24.9 49.3,37.4 63.5,37.4 63.5,51.6 
				75.9,51.6 75.9,37.4 90.1,37.4 			"/>
		</g>
	</g>
	<rect class="st11" width="91.1" height="60.9"/>
</g>
<g id="Layer_2">
</g>
</svg>
