<?xml version="1.0" encoding="utf-8"?>
<!-- Generator: Adobe Illustrator 22.0.0, SVG Export Plug-In . SVG Version: 6.00 Build 0)  -->
<svg version="1.1" xmlns="http://www.w3.org/2000/svg" xmlns:xlink="http://www.w3.org/1999/xlink" x="0px" y="0px" width="73.7px"
	 height="60.9px" viewBox="0 0 73.7 60.9" style="enable-background:new 0 0 73.7 60.9;" xml:space="preserve">
<style type="text/css">
	.st3{fill:#FFB700;}
	.st4{clip-path:url(#SVGID_2_);}
	.st5{fill:#FFFFFF;}
	.st6{clip-path:url(#SVGID_4_);}
	.st7{clip-path:url(#SVGID_6_);}
	.st8{clip-path:url(#SVGID_8_);}
	.st9{clip-path:url(#SVGID_10_);}
	.st10{clip-path:url(#SVGID_12_);}
	.st11{fill:none;}
</style>
<g id="Layer_3">
	<rect x="-4264.5" y="-7695.6" class="st0" width="7600" height="7944"/>
</g>
<g id="Layer_1">
	<g>
		<g>
			<g>
				<path class="st3" d="M59.3,17c-7.4,0-13.4,6-13.4,13.4c0,7.4,6,13.4,13.4,13.4s13.4-6,13.4-13.4C72.7,23,66.7,17,59.3,17z
					 M59.3,22.1c0.8,0,1.4,0.6,1.4,1.4c0,0.8-0.6,1.4-1.4,1.4s-1.4-0.6-1.4-1.4C57.8,22.7,58.5,22.1,59.3,22.1z M61.5,38.9H57
					c-0.6,0-1-0.4-1-1s0.4-1,1-1h1.3v-7.9H57c-0.6,0-1-0.4-1-1s0.4-1,1-1h2.3c0.6,0,1,0.4,1,1v8.9h1.3c0.6,0,1,0.4,1,1
					S62.1,38.9,61.5,38.9z"/>
			</g>
		</g>
		<g>
			<defs>
				<path id="SVGID_11_" d="M59.3,47.4c-9.3,0-16.9-7.6-16.9-16.9c0-9.3,7.6-16.9,16.9-16.9c2.2,0,4.4,0.4,6.3,1.2V-0.7H-8.6v63.3
					h74.2V46.2C63.6,46.9,61.5,47.4,59.3,47.4z"/>
			</defs>
			<clipPath id="SVGID_2_">
				<use xlink:href="#SVGID_11_"  style="overflow:visible;"/>
			</clipPath>
			<g class="st4">
				<g>
					<g>
						<path class="st5" d="M30.5,59.9C14.2,59.9,1,46.7,1,30.5C1,14.2,14.2,1,30.5,1s29.5,13.2,29.5,29.5
							C59.9,46.7,46.7,59.9,30.5,59.9z M30.5,3C15.3,3,3,15.3,3,30.5c0,15.1,12.3,27.5,27.5,27.5c15.1,0,27.5-12.3,27.5-27.5
							C57.9,15.3,45.6,3,30.5,3z"/>
					</g>
				</g>
			</g>
			<g class="st4">
				<path class="st5" d="M30.5,59.9c-0.6,0-1-0.4-1-1V2c0-0.6,0.4-1,1-1s1,0.4,1,1v56.9C31.5,59.5,31,59.9,30.5,59.9z"/>
			</g>
			<g class="st4">
				<path class="st5" d="M30.5,59.9c-9.3,0-16.9-13.2-16.9-29.4S21.2,1.1,30.5,1.1s16.9,13.2,16.9,29.4S39.8,59.9,30.5,59.9z
					 M30.5,2.9c-8.3,0-15.1,12.4-15.1,27.6c0,15.2,6.8,27.6,15.1,27.6s15.1-12.4,15.1-27.6C45.6,15.3,38.8,2.9,30.5,2.9z"/>
			</g>
			<g class="st4">
				<path class="st5" d="M58.9,31.5H2c-0.6,0-1-0.4-1-1s0.4-1,1-1h56.9c0.6,0,1,0.4,1,1S59.5,31.5,58.9,31.5z"/>
			</g>
			<g class="st4">
				<path class="st5" d="M55.3,17.5H5.7c-0.6,0-1-0.4-1-1s0.4-1,1-1h49.6c0.6,0,1,0.4,1,1S55.8,17.5,55.3,17.5z"/>
			</g>
			<g class="st4">
				<path class="st5" d="M55.4,45.3H5.7c-0.6,0-1-0.4-1-1s0.4-1,1-1h49.7c0.6,0,1,0.4,1,1S55.9,45.3,55.4,45.3z"/>
			</g>
		</g>
	</g>
	<rect class="st11" width="73.7" height="60.9"/>
</g>
<g id="Layer_2">
</g>
</svg>
