<?xml version="1.0" encoding="utf-8"?>
<!-- Generator: Adobe Illustrator 22.0.0, SVG Export Plug-In . SVG Version: 6.00 Build 0)  -->
<svg version="1.1" xmlns="http://www.w3.org/2000/svg" xmlns:xlink="http://www.w3.org/1999/xlink" x="0px" y="0px" width="28.6px"
	 height="28.6px" viewBox="0 0 28.6 28.6" style="enable-background:new 0 0 28.6 28.6;" xml:space="preserve">
<style type="text/css">
	.st0{fill:none;}
	.st1{fill:#00FF85;}
	.st2{fill:#ED0000;}
	.st3{fill:#FFB700;}
	.st4{clip-path:url(#SVGID_2_);}
	.st5{fill:#FFFFFF;}
	.st6{clip-path:url(#SVGID_4_);}
	.st7{clip-path:url(#SVGID_6_);}
	.st8{clip-path:url(#SVGID_8_);}
	.st9{clip-path:url(#SVGID_10_);}
	.st10{clip-path:url(#SVGID_12_);}
	.st11{fill:none;}
</style>
<g id="Layer_3">
	<rect x="-4313.1" y="-7424.4" class="st0" width="7600" height="7944"/>
</g>
<g id="Layer_1">
	<g>
		<g>
			<g>
				<path class="st1" d="M24.2,27.6H4.4c-1.9,0-3.4-1.5-3.4-3.4V4.4C1,2.5,2.5,1,4.4,1h19.8c1.9,0,3.4,1.5,3.4,3.4v19.8
					C27.6,26.1,26.1,27.6,24.2,27.6z M4.4,3.7c-0.4,0-0.7,0.3-0.7,0.7v19.8c0,0.4,0.3,0.7,0.7,0.7h19.8c0.4,0,0.7-0.3,0.7-0.7V4.4
					c0-0.4-0.3-0.7-0.7-0.7H4.4z"/>
			</g>
		</g>
		<g>
			<path class="st1" d="M21,7.6c0.5,0,0.9,0.4,0.9,0.9v7.9c0,0.5-0.4,0.9-0.9,0.9h-1.6V18c0,0.5-0.4,0.9-0.9,0.9h-0.8V20
				c0,0.5-0.4,0.9-0.9,0.9h-4.9c-0.5,0-0.9-0.4-0.9-0.9v-1.1h-0.8c-0.5,0-0.9-0.4-0.9-0.9v-0.8H7.6c-0.5,0-0.9-0.4-0.9-0.9V8.5
				c0-0.5,0.4-0.9,0.9-0.9H21 M21,5.4H7.6C6,5.4,4.6,6.8,4.6,8.5v7.9c0,1.6,1.2,2.9,2.8,3.1c0.3,0.6,0.9,1.1,1.5,1.4
				c0.4,1.3,1.6,2.2,3,2.2h4.9c1.4,0,2.6-0.9,3-2.2c0.7-0.3,1.2-0.8,1.5-1.4c1.6-0.1,2.8-1.5,2.8-3.1V8.5C24.1,6.8,22.7,5.4,21,5.4
				L21,5.4z"/>
		</g>
		<g>
			<g>
				<path class="st1" d="M7.7,8.6v7.6h2.6v1.7H12v2h4.6v-2h1.8v-1.7H21V8.6H7.7z M9.5,11.9H8.4V9.5h1.1V11.9z M11,11.9H9.9V9.5H11
					V11.9z M12.6,11.9h-1.1V9.5h1.1V11.9z M14.1,11.9H13V9.5h1.1V11.9z M15.6,11.9h-1.1V9.5h1.1V11.9z M17.2,11.9h-1.1V9.5h1.1V11.9
					z M18.7,11.9h-1.1V9.5h1.1V11.9z M20.3,11.9h-1.1V9.5h1.1V11.9z"/>
			</g>
		</g>
	</g>
	<rect class="st11" width="28.6" height="28.6"/>
</g>
<g id="Layer_2">
</g>
</svg>
