<?xml version="1.0" encoding="utf-8"?>
<!-- Generator: Adobe Illustrator 22.0.0, SVG Export Plug-In . SVG Version: 6.00 Build 0)  -->
<svg version="1.1" xmlns="http://www.w3.org/2000/svg" xmlns:xlink="http://www.w3.org/1999/xlink" x="0px" y="0px" width="81.1px"
	 height="51.8px" viewBox="0 0 81.1 51.8" style="enable-background:new 0 0 81.1 51.8;" xml:space="preserve">
<style type="text/css">
	.st1{fill:#00FF85;}
	.st2{fill:#ED0000;}
	.st3{fill:#FFB700;}
	.st4{clip-path:url(#SVGID_2_);}
	.st5{fill:#FFFFFF;}
	.st6{clip-path:url(#SVGID_4_);}
	.st7{clip-path:url(#SVGID_6_);}
	.st8{clip-path:url(#SVGID_8_);}
	.st9{clip-path:url(#SVGID_10_);}
	.st10{clip-path:url(#SVGID_12_);}
	.st11{fill:none;}
</style>
<g id="Layer_3">
	<rect x="-4381.8" y="-7268.3" class="st0" width="7600" height="7944"/>
</g>
<g id="Layer_1">
	<g>
		<g>
			<polygon class="st3" points="66.2,26.9 66.2,4.7 53.8,4.7 53.8,26.9 39.9,26.9 60,47 80.1,26.9 			"/>
		</g>
		<g>
			<defs>
				<path id="SVGID_5_" d="M64.8,54.8L33.1,24h22.6c-9.3-23.2-25-29.8-41-26.4s-29.8,30-15.5,47.5S64.8,54.8,64.8,54.8z"/>
			</defs>
			<clipPath id="SVGID_2_">
				<use xlink:href="#SVGID_5_"  style="overflow:visible;"/>
			</clipPath>
			<g class="st4">
				<g>
					<path class="st5" d="M25.9,5.2c-11.4,0-20.7,9.3-20.7,20.7s9.3,20.7,20.7,20.7s20.7-9.3,20.7-20.7S37.3,5.2,25.9,5.2z
						 M25.9,35.1c-5.1,0-9.2-4.1-9.2-9.2s4.1-9.2,9.2-9.2s9.2,4.1,9.2,9.2S31,35.1,25.9,35.1z"/>
				</g>
				<g>
					<path class="st3" d="M25.9,50.8C12.2,50.8,1,39.6,1,25.9S12.2,1,25.9,1s24.9,11.2,24.9,24.9S39.6,50.8,25.9,50.8z M25.9,3
						C13.3,3,3,13.3,3,25.9s10.3,22.9,22.9,22.9s22.9-10.3,22.9-22.9S38.5,3,25.9,3z"/>
				</g>
			</g>
		</g>
	</g>
	<rect class="st11" width="81.1" height="51.8"/>
</g>
<g id="Layer_2">
</g>
</svg>
