<?xml version="1.0" encoding="utf-8"?>
<!-- Generator: Adobe Illustrator 22.0.0, SVG Export Plug-In . SVG Version: 6.00 Build 0)  -->
<svg version="1.1" id="Layer_1" xmlns="http://www.w3.org/2000/svg" xmlns:xlink="http://www.w3.org/1999/xlink" x="0px" y="0px"
	 width="32.6px" height="28.6px" viewBox="0 0 32.6 28.6" style="enable-background:new 0 0 32.6 28.6;" xml:space="preserve">
<style type="text/css">
	.st0{fill:#00FF85;}
</style>
<circle class="st0" cx="16.3" cy="24.4" r="3.2"/>
<g>
	<path class="st0" d="M16.3,18.6c1.7,0,3.3,0.7,4.3,1.9c0.5,0.6,1.4,0.6,1.9,0l0,0c0.4-0.5,0.3-1.1,0-1.6c-1.5-1.7-3.7-2.8-6.2-2.8
		c-2.5,0-4.7,1.1-6.2,2.8c-0.4,0.4-0.4,1.1,0,1.6l0,0c0.5,0.6,1.4,0.6,1.9,0C13,19.3,14.6,18.6,16.3,18.6z"/>
	<path class="st0" d="M16.3,13.7c2.9,0,5.5,1.1,7.4,3c0.5,0.5,1.4,0.5,1.8-0.1l0,0c0.4-0.5,0.3-1.2-0.1-1.7
		c-2.4-2.3-5.6-3.7-9.2-3.7s-6.8,1.4-9.2,3.7C6.7,15.3,6.6,16,7,16.5l0,0c0.5,0.6,1.3,0.6,1.8,0.1C10.8,14.8,13.4,13.7,16.3,13.7z"
		/>
	<path class="st0" d="M16.3,8.7c4,0,7.7,1.5,10.5,4.1c0.5,0.5,1.4,0.4,1.8-0.2l0,0c0.4-0.5,0.3-1.2-0.2-1.7C25.2,8,21,6.2,16.3,6.2
		S7.4,8,4.1,10.9c-0.5,0.4-0.6,1.2-0.2,1.7l0,0c0.4,0.6,1.3,0.6,1.8,0.2C8.6,10.3,12.3,8.7,16.3,8.7z"/>
	<path class="st0" d="M16.3,3.8c5.2,0,9.9,1.9,13.6,5.1c0.5,0.5,1.3,0.4,1.8-0.2l0,0C32,8.1,32,7.4,31.5,7
		c-4.1-3.6-9.4-5.7-15.2-5.7S5.2,3.4,1.1,7C0.6,7.4,0.6,8.1,1,8.6l0,0c0.4,0.6,1.2,0.7,1.8,0.2C6.4,5.7,11.1,3.8,16.3,3.8z"/>
</g>
</svg>
