<?xml version="1.0" encoding="utf-8"?>
<!-- Generator: Adobe Illustrator 22.0.0, SVG Export Plug-In . SVG Version: 6.00 Build 0)  -->
<svg version="1.1" xmlns="http://www.w3.org/2000/svg" xmlns:xlink="http://www.w3.org/1999/xlink" x="0px" y="0px" width="51.8px"
	 height="51.8px" viewBox="0 0 51.8 51.8" style="enable-background:new 0 0 51.8 51.8;" xml:space="preserve">
<style type="text/css">
	.st1{fill:#00FF85;}
	.st2{fill:#ED0000;}
	.st3{fill:#FFB700;}
	.st4{clip-path:url(#SVGID_2_);}
	.st5{fill:#FFFFFF;}
	.st6{clip-path:url(#SVGID_4_);}
	.st7{clip-path:url(#SVGID_6_);}
	.st8{clip-path:url(#SVGID_8_);}
	.st9{clip-path:url(#SVGID_10_);}
	.st10{clip-path:url(#SVGID_12_);}
	.st11{fill:none;}
</style>
<g id="Layer_3">
	<rect x="-4264.5" y="-7187.3" class="st0" width="7600" height="7944"/>
</g>
<g id="Layer_1">
	<g>
		<g>
			<path class="st5" d="M28.2,20.1h-4.6c-0.9,0-1.6,0.7-1.6,1.6v4.6c0,0.9,0.7,1.6,1.6,1.6h4.6c0.9,0,1.6-0.7,1.6-1.6v-4.6
				C29.9,20.9,29.1,20.1,28.2,20.1z"/>
		</g>
		<g>
			<path class="st3" d="M39.9,50.8h-28C5.9,50.8,1,45.9,1,39.9v-28C1,5.9,5.9,1,11.9,1h28c6,0,10.9,4.9,10.9,10.9v28
				C50.8,45.9,45.9,50.8,39.9,50.8z M11.9,3C7,3,3,7,3,11.9v28c0,4.9,4,8.9,8.9,8.9h28c4.9,0,8.9-4,8.9-8.9v-28c0-4.9-4-8.9-8.9-8.9
				H11.9z"/>
		</g>
		<g>
			<path class="st3" d="M39.9,50.8h-28C5.9,50.8,1,45.9,1,39.9v-28C1,5.9,5.9,1,11.9,1h28c6,0,10.9,4.9,10.9,10.9v28
				C50.8,45.9,45.9,50.8,39.9,50.8z M11.9,3C7,3,3,7,3,11.9v28c0,4.9,4,8.9,8.9,8.9h28c4.9,0,8.9-4,8.9-8.9v-28c0-4.9-4-8.9-8.9-8.9
				H11.9z"/>
		</g>
		<g>
			<path class="st5" d="M37.8,46.8H14.1c-5,0-9-4-9-9V14.1c0-5,4-9,9-9h23.7c5,0,9,4,9,9v13.4c0,0.7-0.3,1.4-0.8,1.9L33.6,41.8
				c-0.5,0.5-1.2,0.8-1.9,0.8H14c-2.6,0-4.8-2.2-4.8-4.8V14c0-2.6,2.2-4.8,4.8-4.8h23.9c2.6,0,4.8,2.2,4.8,4.8v11.8
				c0,0.7-0.3,1.4-0.8,1.9L31.8,37.8c-0.5,0.5-1.2,0.8-1.9,0.8h-14c-1.4,0-2.6-1.2-2.6-2.6V15.9c0-1.4,1.2-2.6,2.6-2.6H36
				c1.4,0,2.6,1.2,2.6,2.6v7.9c0,0.7-0.3,1.4-0.8,1.9l-8,8c-0.5,0.5-1.2,0.8-1.9,0.8h-7.9c-1.4,0-2.6-1.1-2.6-2.6v-6.3
				c0-1.4,1.1-2.6,2.6-2.6h6c0.6,0,1,0.4,1,1s-0.4,1-1,1h-6c-0.3,0-0.6,0.2-0.6,0.6v6.3c0,0.3,0.2,0.6,0.6,0.6h7.9
				c0.2,0,0.4-0.1,0.5-0.2l8-8c0.1-0.1,0.2-0.3,0.2-0.5v-7.9c0-0.3-0.3-0.6-0.6-0.6H15.9c-0.3,0-0.6,0.3-0.6,0.6V36
				c0,0.3,0.3,0.6,0.6,0.6h14c0.2,0,0.4-0.1,0.5-0.2l10.1-10.1c0.1-0.1,0.2-0.3,0.2-0.5V14c0-1.5-1.3-2.8-2.8-2.8H14
				c-1.5,0-2.8,1.3-2.8,2.8v23.9c0,1.5,1.3,2.8,2.8,2.8h17.6c0.2,0,0.4-0.1,0.5-0.2l12.4-12.4c0.1-0.1,0.2-0.3,0.2-0.5V14.1
				c0-3.9-3.1-7-7-7H14.1c-3.9,0-7,3.1-7,7v23.7c0,3.9,3.1,7,7,7h19.9L45,33.7c0.3-0.3,0.7-0.4,1.1-0.2c0.4,0.2,0.6,0.5,0.6,0.9v3.4
				C46.8,42.7,42.7,46.8,37.8,46.8z M36.8,44.8h1c3.9,0,7-3.1,7-7v-1L36.8,44.8z"/>
		</g>
	</g>
	<rect class="st11" width="51.8" height="51.8"/>
</g>
<g id="Layer_2">
</g>
</svg>
