<?xml version="1.0" encoding="utf-8"?>
<!-- Generator: Adobe Illustrator 22.0.0, SVG Export Plug-In . SVG Version: 6.00 Build 0)  -->
<svg version="1.1" xmlns="http://www.w3.org/2000/svg" xmlns:xlink="http://www.w3.org/1999/xlink" x="0px" y="0px" width="23px"
	 height="28.3px" viewBox="0 0 23 28.3" style="enable-background:new 0 0 23 28.3;" xml:space="preserve">
<style type="text/css">
	.st0{fill:#606060;}
	.st1{fill:#00FF85;}
	.st2{fill:#ED0000;}
	.st3{fill:#FFB700;}
	.st4{clip-path:url(#SVGID_2_);}
	.st5{fill:#FFFFFF;}
	.st6{clip-path:url(#SVGID_4_);}
	.st7{clip-path:url(#SVGID_6_);}
	.st8{clip-path:url(#SVGID_8_);}
	.st9{clip-path:url(#SVGID_10_);}
	.st10{clip-path:url(#SVGID_12_);}
	.st11{fill:none;}
</style>
<g id="Layer_3">
	<rect x="-4319.9" y="-7473.1" class="st0" width="7600" height="7944"/>
</g>
<g id="Layer_1">
	<g>
		<path class="st2" d="M20.3,11.9V9.8c0-4.8-3.9-8.8-8.8-8.8C6.7,1,2.7,4.9,2.7,9.8v2.1c-1,0.4-1.7,1.4-1.7,2.6v10
			c0,1.6,1.3,2.8,2.8,2.8h15.3c1.6,0,2.8-1.3,2.8-2.8v-10C22,13.3,21.3,12.3,20.3,11.9z M11.5,4.4c3,0,5.4,2.4,5.4,5.4v1.9H6.2V9.8
			C6.2,6.8,8.6,4.4,11.5,4.4z"/>
	</g>
	<rect class="st11" width="23" height="28.3"/>
</g>
<g id="Layer_2">
</g>
</svg>
