<?xml version="1.0" encoding="utf-8"?>
<!-- Generator: Adobe Illustrator 22.0.0, SVG Export Plug-In . SVG Version: 6.00 Build 0)  -->
<svg version="1.1" xmlns="http://www.w3.org/2000/svg" xmlns:xlink="http://www.w3.org/1999/xlink" x="0px" y="0px" width="79.4px"
	 height="61.4px" viewBox="0 0 79.4 61.4" style="enable-background:new 0 0 79.4 61.4;" xml:space="preserve">
<style type="text/css">
	.st1{fill:#00FF85;}
	.st2{fill:#ED0000;}
	.st3{fill:#FFB700;}
	.st4{clip-path:url(#SVGID_2_);}
	.st5{fill:#FFFFFF;}
	.st6{clip-path:url(#SVGID_4_);}
	.st7{clip-path:url(#SVGID_6_);}
	.st8{clip-path:url(#SVGID_8_);}
	.st9{clip-path:url(#SVGID_10_);}
	.st10{clip-path:url(#SVGID_12_);}
	.st11{fill:none;}
</style>
<g id="Layer_3">
	<rect x="-4264.5" y="-7777" class="st0" width="7600" height="7944"/>
</g>
<g id="Layer_1">
	<g>
		<g>
			<g>
				<path class="st3" d="M65,17.2c-7.4,0-13.4,6-13.4,13.4c0,7.4,6,13.4,13.4,13.4s13.4-6,13.4-13.4C78.4,23.3,72.4,17.2,65,17.2z
					 M65,22.3c0.8,0,1.4,0.6,1.4,1.4c0,0.8-0.6,1.4-1.4,1.4s-1.4-0.6-1.4-1.4C63.5,22.9,64.2,22.3,65,22.3z M67.2,39.1h-4.5
					c-0.6,0-1-0.4-1-1s0.4-1,1-1H64v-7.9h-1.3c-0.6,0-1-0.4-1-1s0.4-1,1-1H65c0.6,0,1,0.4,1,1v8.9h1.3c0.6,0,1,0.4,1,1
					S67.8,39.1,67.2,39.1z"/>
			</g>
		</g>
		<g>
			<defs>
				<path id="SVGID_9_" d="M65,47.6C55.6,47.6,48,40,48,30.7c0-9.3,7.6-16.9,16.9-16.9c2.2,0,4.4,0.4,6.3,1.2V-0.5H-2.9v63.3h74.2
					V46.4C69.3,47.2,67.2,47.6,65,47.6z"/>
			</defs>
			<clipPath id="SVGID_2_">
				<use xlink:href="#SVGID_9_"  style="overflow:visible;"/>
			</clipPath>
			<g class="st4">
				<g>
					<path class="st5" d="M64.8,54.3H2c-0.6,0-1-0.4-1-1V2c0-0.6,0.4-1,1-1h62.8c0.6,0,1,0.4,1,1v51.3
						C65.8,53.9,65.4,54.3,64.8,54.3z M3,52.3h60.8V3H3V52.3z"/>
				</g>
				<g>
					<path class="st5" d="M42.3,13.9H24.1c-0.6,0-1-0.4-1-1s0.4-1,1-1h17.5l4.9-10.3c0.2-0.5,0.8-0.7,1.3-0.5
						c0.5,0.2,0.7,0.8,0.5,1.3l-5.2,10.9C43,13.6,42.7,13.9,42.3,13.9z"/>
				</g>
				<g>
					<path class="st5" d="M42.3,13.9H24.1c-0.4,0-0.7-0.2-0.9-0.6L18,2.4c-0.2-0.5,0-1.1,0.5-1.3c0.5-0.2,1.1,0,1.3,0.5l4.9,10.3
						h17.5c0.6,0,1,0.4,1,1S42.8,13.9,42.3,13.9z"/>
				</g>
				<g>
					<path class="st3" d="M39.2,11.4H27.8c-0.6,0-1-0.4-1-1V4.2c0-0.6,0.4-1,1-1h11.4c0.6,0,1,0.4,1,1v6.2
						C40.2,10.9,39.8,11.4,39.2,11.4z M28.8,9.4h9.4V5.2h-9.4V9.4z"/>
				</g>
				<g>
					<path class="st5" d="M31.6,52.5H17.7c-0.2,0-0.5-0.1-0.7-0.3l-1.6-1.4H6.2c-0.6,0-1-0.4-1-1V17.5c0-0.6,0.4-1,1-1h25.4
						c0.6,0,1,0.4,1,1v34C32.6,52,32.2,52.5,31.6,52.5z M18.1,50.5h12.5v-32H7.2v30.4h8.7c0.2,0,0.5,0.1,0.7,0.3L18.1,50.5z"/>
				</g>
				<g>
					<path class="st5" d="M49.1,52.5H35.2c-0.6,0-1-0.4-1-1v-34c0-0.6,0.4-1,1-1h25.4c0.6,0,1,0.4,1,1v32.4c0,0.6-0.4,1-1,1h-9.3
						l-1.6,1.4C49.6,52.4,49.4,52.5,49.1,52.5z M36.2,50.5h12.5l1.6-1.4c0.2-0.2,0.4-0.3,0.7-0.3h8.7V18.5H36.2V50.5z"/>
				</g>
				<g>
					<path class="st5" d="M6.5,60.4H3.7c-0.6,0-1-0.4-1-1v-6c0-0.6,0.4-1,1-1h2.7c0.6,0,1,0.4,1,1v6C7.5,59.9,7,60.4,6.5,60.4z
						 M4.7,58.4h0.7v-4H4.7V58.4z"/>
				</g>
				<g>
					<path class="st5" d="M63.2,60.4h-2.7c-0.6,0-1-0.4-1-1v-6c0-0.6,0.4-1,1-1h2.7c0.6,0,1,0.4,1,1v6
						C64.2,59.9,63.8,60.4,63.2,60.4z M61.5,58.4h0.7v-4h-0.7V58.4z"/>
				</g>
			</g>
		</g>
	</g>
	<rect class="st11" width="79.4" height="61.4"/>
</g>
<g id="Layer_2">
</g>
</svg>
