<?xml version="1.0" encoding="utf-8"?>
<svg version="1.1" xmlns="http://www.w3.org/2000/svg" xmlns:xlink="http://www.w3.org/1999/xlink" x="0px" y="0px" width="36.5px"
	 height="36.5px" viewBox="0 0 36.5 36.5" style="enable-background:new 0 0 36.5 36.5;" xml:space="preserve">
<style type="text/css">
	.st5{fill:#FFFFFF;}
</style>
<g id="Layer_1">
	<path class="st5" d="M32.7,1.6h-1.2v5.5C28.3,3.4,23.5,1,18.3,1C8.7,1,1,8.7,1,18.3c0,9.5,7.7,17.3,17.3,17.3
		s17.3-7.7,17.3-17.3c0-3.5-1.1-6.8-2.9-9.5V1.6z M34.3,18.3c0,8.8-7.2,16-16,16c-8.8,0-16-7.2-16-16s7.2-16,16-16
		c5.4,0,10.3,2.7,13.2,6.9v3.3c-2.2-5-7.3-8.6-13.2-8.6c-7.9,0-14.4,6.5-14.4,14.4s6.5,14.4,14.4,14.4c7.9,0,14.4-6.5,14.4-14.4
		v-7C33.7,13.4,34.3,15.8,34.3,18.3z M24.7,18.3c0,3.5-2.9,6.4-6.4,6.4s-6.4-2.9-6.4-6.4s2.9-6.4,6.4-6.4S24.7,14.7,24.7,18.3z"
		/>
</g>
</svg>
