<?xml version="1.0" encoding="utf-8"?>
<svg version="1.1" xmlns="http://www.w3.org/2000/svg" xmlns:xlink="http://www.w3.org/1999/xlink" x="0px" y="0px" width="36.5px"
	 height="36.5px" viewBox="0 0 36.5 36.5" style="enable-background:new 0 0 36.5 36.5;" xml:space="preserve">
<style type="text/css">
	.st5{fill:#FFFFFF;}
</style>

<g id="Layer_1">
	<path class="st5" d="M18.3,3.9c-7.9,0-14.4,6.5-14.4,14.4s6.5,14.4,14.4,14.4s14.4-6.5,14.4-14.4S26.2,3.9,18.3,3.9z M20.7,28.4
		h-5v-9c-0.9,0-1.6-0.7-1.6-1.6v-0.6c0-0.9,0.7-1.6,1.6-1.6h3.2h1.8V28.4z M18.2,13.1c-1.4,0-2.5-1.1-2.5-2.5
		c0-1.4,1.1-2.5,2.5-2.5c1.4,0,2.5,1.1,2.5,2.5C20.7,12,19.6,13.1,18.2,13.1z"/>
	<path class="st5" d="M18.3,1C8.7,1,1,8.7,1,18.3c0,9.5,7.7,17.3,17.3,17.3s17.3-7.7,17.3-17.3C35.5,8.7,27.8,1,18.3,1z
			M18.3,34.3c-8.8,0-16-7.2-16-16s7.2-16,16-16c8.8,0,16,7.2,16,16S27.1,34.3,18.3,34.3z"/>
</g>
</svg>
