<?xml version="1.0" encoding="utf-8"?>
<!-- Generator: Adobe Illustrator 22.0.0, SVG Export Plug-In . SVG Version: 6.00 Build 0)  -->
<svg version="1.1" xmlns="http://www.w3.org/2000/svg" xmlns:xlink="http://www.w3.org/1999/xlink" x="0px" y="0px" width="60.9px"
	 height="60.9px" viewBox="0 0 60.9 60.9" style="enable-background:new 0 0 60.9 60.9;" xml:space="preserve">
<style type="text/css">
	.st1{fill:#00FF85;}
	.st2{fill:#ED0000;}
	.st3{fill:#FFB700;}
	.st4{clip-path:url(#SVGID_2_);}
	.st5{fill:#FFFFFF;}
	.st6{clip-path:url(#SVGID_4_);}
	.st7{clip-path:url(#SVGID_6_);}
	.st8{clip-path:url(#SVGID_8_);}
	.st9{clip-path:url(#SVGID_10_);}
	.st10{clip-path:url(#SVGID_12_);}
	.st11{fill:none;}
</style>
<g id="Layer_3">
	<rect x="-4264.5" y="-7106" class="st0" width="7600" height="7944"/>
</g>
<g id="Layer_1">
	<g>
		<g>
			<g>
				<rect x="54.8" y="2" class="st5" width="2.1" height="28.2"/>
			</g>
			<g>
				<g>
					<path class="st3" d="M30.5,59.9C14.2,59.9,1,46.7,1,30.5C1,14.2,14.2,1,30.5,1s29.5,13.2,29.5,29.5
						C59.9,46.7,46.7,59.9,30.5,59.9z M30.5,3C15.3,3,3,15.3,3,30.5c0,15.1,12.3,27.5,27.5,27.5s27.5-12.3,27.5-27.5
						C57.9,15.3,45.6,3,30.5,3z"/>
				</g>
				<g>
					<path class="st5" d="M30.5,6.1c13.4,0,24.4,10.9,24.4,24.4S43.9,54.8,30.5,54.8S6.1,43.9,6.1,30.5S17,6.1,30.5,6.1 M30.5,43.6
						c7.2,0,13.1-5.9,13.1-13.1s-5.9-13.1-13.1-13.1s-13.1,5.9-13.1,13.1S23.3,43.6,30.5,43.6 M30.5,4C15.8,4,4,15.8,4,30.5
						S15.8,57,30.5,57S57,45.1,57,30.5S45.1,4,30.5,4L30.5,4z M30.5,41.4c-6,0-11-4.9-11-11s4.9-11,11-11s11,4.9,11,11
						S36.5,41.4,30.5,41.4L30.5,41.4z"/>
				</g>
			</g>
		</g>
		<g>
			<path class="st3" d="M50.8,24.5c0.1,0,0.3,0.1,0.4,0.3c0.5,1.9,0.7,3.8,0.7,5.7c0,1.9-0.3,3.9-0.8,5.8c-0.1,0.2-0.2,0.3-0.4,0.3
				c0,0-0.1,0-0.1,0l-4.8-1.8c-0.2-0.1-0.2-0.3-0.2-0.5c0.3-1.2,0.4-2.5,0.4-3.7c0-1.2-0.1-2.5-0.4-3.7c0-0.2,0-0.4,0.2-0.5l4.8-1.8
				C50.7,24.5,50.8,24.5,50.8,24.5 M50.8,22.5c-0.3,0-0.6,0-0.8,0.2l-4.8,1.8c-1.1,0.4-1.7,1.6-1.4,2.8c0.2,1,0.4,2.1,0.4,3.2
				c0,1.1-0.1,2.2-0.4,3.3c-0.3,1.2,0.3,2.4,1.4,2.8l4.8,1.8c0.3,0.1,0.6,0.2,0.8,0.2c1,0,2-0.7,2.3-1.8c0.5-2,0.8-4.1,0.8-6.3
				c0-2.1-0.3-4.2-0.8-6.2C52.8,23.2,51.8,22.5,50.8,22.5L50.8,22.5z"/>
		</g>
		<g>
			<path class="st3" d="M10.1,24.4c0,0,0.1,0,0.1,0l4.8,1.8c0.2,0.1,0.2,0.3,0.2,0.5c-0.3,1.2-0.4,2.5-0.4,3.7
				c0,1.3,0.1,2.5,0.4,3.8c0,0.2,0,0.4-0.2,0.5l-4.8,1.8c0,0-0.1,0-0.1,0c-0.1,0-0.3-0.1-0.3-0.2C9.2,34.4,9,32.4,9,30.4
				c0-1.9,0.3-3.8,0.7-5.7C9.8,24.5,9.9,24.4,10.1,24.4 M10.1,22.4c-1,0-2,0.7-2.3,1.8c-0.5,2-0.8,4.1-0.8,6.2
				c0,2.2,0.3,4.4,0.9,6.4c0.3,1,1.2,1.7,2.2,1.7c0.3,0,0.6,0,0.8-0.2l4.8-1.8c1.1-0.4,1.7-1.6,1.4-2.8c-0.2-1.1-0.4-2.2-0.4-3.3
				c0-1.1,0.1-2.2,0.4-3.2c0.3-1.2-0.3-2.4-1.4-2.8l-4.8-1.8C10.6,22.5,10.3,22.4,10.1,22.4L10.1,22.4z"/>
		</g>
		<g>
			<path class="st3" d="M35.7,9.6c0,0,0.1,0,0.1,0c1.9,0.5,3.6,1.2,5.3,2.2c1.7,1,3.2,2.1,4.6,3.5c0.1,0.1,0.1,0.2,0.1,0.3
				c0,0.1-0.1,0.2-0.1,0.2l-3.9,3.2c0,0-0.1,0.1-0.2,0.1c-0.1,0-0.2-0.1-0.3-0.1c-0.9-0.9-1.9-1.6-3-2.2c-1.1-0.6-2.2-1.1-3.4-1.5
				c-0.2-0.1-0.4-0.2-0.3-0.4l0.8-5C35.3,9.7,35.5,9.6,35.7,9.6 M35.7,7.6c-1.1,0-2.1,0.8-2.3,2l-0.8,5c-0.2,1.2,0.6,2.3,1.7,2.6
				c1,0.3,2,0.7,3,1.3c1,0.6,1.9,1.2,2.7,2c0.5,0.4,1.1,0.7,1.7,0.7c0.5,0,1-0.2,1.5-0.5l3.9-3.2c1.1-0.9,1.1-2.5,0.1-3.5
				c-1.5-1.5-3.1-2.8-5-3.8c-1.9-1.1-3.8-1.8-5.8-2.4C36.1,7.7,35.9,7.6,35.7,7.6L35.7,7.6z"/>
		</g>
		<g>
			<path class="st3" d="M19.3,41.7c0.1,0,0.2,0.1,0.3,0.1c0.9,0.8,1.9,1.6,3,2.2c1.1,0.6,2.3,1.1,3.5,1.5c0.2,0.1,0.4,0.2,0.3,0.4
				l-0.8,5c0,0.2-0.2,0.3-0.3,0.3c0,0,0,0-0.1,0c-1.9-0.5-3.8-1.3-5.5-2.2c-1.7-1-3.2-2.1-4.6-3.5C15,45.5,15,45.3,15,45.3
				c0-0.1,0.1-0.2,0.1-0.2l3.9-3.2C19.1,41.8,19.2,41.7,19.3,41.7 M19.3,39.7c-0.5,0-1,0.2-1.5,0.5l-3.9,3.2
				c-1.1,0.9-1.1,2.5-0.1,3.5c1.5,1.4,3.1,2.7,5,3.8c1.9,1.1,3.9,1.9,6,2.4c0.2,0,0.4,0.1,0.6,0.1c1.1,0,2.1-0.8,2.3-2l0.8-5
				c0.2-1.2-0.6-2.3-1.7-2.6c-1-0.3-2.1-0.8-3.1-1.3c-1-0.6-1.8-1.2-2.6-1.9C20.5,40,19.9,39.7,19.3,39.7L19.3,39.7z"/>
		</g>
		<g>
			<path class="st3" d="M25.1,9.7c0.2,0,0.3,0.1,0.4,0.3l0.8,5c0,0.2-0.1,0.4-0.3,0.4c-1.2,0.4-2.4,0.9-3.5,1.5
				c-1.1,0.6-2.1,1.3-3,2.2c-0.1,0.1-0.2,0.1-0.3,0.1c-0.1,0-0.2,0-0.2-0.1l-4-3.2c0,0-0.1-0.1-0.1-0.2c0-0.1,0-0.2,0.1-0.3
				c1.4-1.4,2.9-2.5,4.5-3.5c1.7-1,3.5-1.7,5.4-2.2C25,9.7,25.1,9.7,25.1,9.7 M25.1,7.7c-0.2,0-0.4,0-0.6,0.1c-2,0.5-4,1.3-5.8,2.4
				c-1.9,1.1-3.5,2.4-4.9,3.8c-1,1-1,2.6,0.1,3.5l4,3.2c0.4,0.3,0.9,0.5,1.5,0.5c0.6,0,1.2-0.2,1.7-0.7c0.8-0.7,1.6-1.4,2.6-1.9
				c1-0.6,2-1,3-1.3c1.1-0.4,1.9-1.5,1.7-2.6l-0.8-5C27.3,8.5,26.3,7.7,25.1,7.7L25.1,7.7z"/>
		</g>
		<g>
			<path class="st3" d="M41.6,41.7c0.1,0,0.2,0,0.2,0.1l4,3.2c0.1,0.1,0.1,0.2,0.1,0.3c0,0.1-0.1,0.2-0.1,0.2
				c-1.4,1.4-3,2.6-4.7,3.6c-1.7,1-3.4,1.7-5.3,2.2c0,0-0.1,0-0.1,0c-0.2,0-0.3-0.1-0.4-0.3l-0.8-5c0-0.2,0.1-0.4,0.3-0.4
				c1.2-0.4,2.3-0.9,3.4-1.5c1.1-0.6,2.1-1.4,3-2.3C41.4,41.7,41.5,41.7,41.6,41.7 M41.6,39.7c-0.6,0-1.2,0.2-1.7,0.7
				c-0.8,0.7-1.7,1.4-2.7,2c-1,0.6-2,1-3,1.3c-1.1,0.4-1.9,1.5-1.7,2.6l0.8,5c0.2,1.2,1.2,2,2.3,2c0.2,0,0.4,0,0.6-0.1
				c2-0.5,3.9-1.3,5.8-2.4c1.9-1.1,3.6-2.5,5.1-4c1-1,0.8-2.6-0.2-3.4l-4-3.2C42.6,39.8,42.1,39.7,41.6,39.7L41.6,39.7z"/>
		</g>
		<g>
			<path class="st3" d="M30.5,39.5c-5,0-9-4-9-9c0-5,4-9,9-9s9,4,9,9C39.5,35.4,35.4,39.5,30.5,39.5z M30.5,23.5c-3.9,0-7,3.1-7,7
				c0,3.9,3.1,7,7,7s7-3.1,7-7C37.5,26.6,34.3,23.5,30.5,23.5z"/>
		</g>
	</g>
	<rect class="st11" width="60.9" height="60.9"/>
</g>
<g id="Layer_2">
</g>
</svg>
