<?xml version="1.0" encoding="utf-8"?>
<!-- Generator: Adobe Illustrator 22.0.0, SVG Export Plug-In . SVG Version: 6.00 Build 0)  -->
<svg version="1.1" xmlns="http://www.w3.org/2000/svg" xmlns:xlink="http://www.w3.org/1999/xlink" x="0px" y="0px" width="35.4px"
	 height="28.3px" viewBox="0 0 35.4 28.3" style="enable-background:new 0 0 35.4 28.3;" xml:space="preserve">
<style type="text/css">
	.st0{fill:none;}
	.st1{fill:#00FF85;}
	.st2{fill:#ED0000;}
	.st3{fill:#FFB700;}
	.st4{clip-path:url(#SVGID_2_);}
	.st5{fill:#FFFFFF;}
	.st6{clip-path:url(#SVGID_4_);}
	.st7{clip-path:url(#SVGID_6_);}
	.st8{clip-path:url(#SVGID_8_);}
	.st9{clip-path:url(#SVGID_10_);}
	.st10{clip-path:url(#SVGID_12_);}
	.st11{fill:none;}
</style>
<g id="Layer_3">
	<rect x="-4264.5" y="-7473.1" class="st0" width="7600" height="7944"/>
</g>
<g id="Layer_1">
	<g>
		<g>
			<path class="st1" d="M31.5,27.3H16.2c-1.6,0-2.8-1.3-2.8-2.8v-10c0-1.6,1.3-2.8,2.8-2.8h15.3c1.6,0,2.8,1.3,2.8,2.8v10
				C34.4,26,33.1,27.3,31.5,27.3z"/>
		</g>
		<g>
			<path class="st1" d="M18.5,15.6h-3.4V9.8c0-3-2.4-5.4-5.4-5.4S4.4,6.8,4.4,9.8H1C1,4.9,4.9,1,9.8,1s8.8,3.9,8.8,8.8V15.6z"/>
		</g>
	</g>
	<rect class="st11" width="35.4" height="28.3"/>
</g>
<g id="Layer_2">
</g>
</svg>
