<?xml version="1.0" encoding="utf-8"?>
<svg version="1.1" xmlns="http://www.w3.org/2000/svg" xmlns:xlink="http://www.w3.org/1999/xlink" x="0px" y="0px" width="41.1px"
	 height="41.1px" viewBox="0 0 41.1 41.1" style="enable-background:new 0 0 41.1 41.1;" xml:space="preserve">
<style type="text/css">
	.st2{fill:#ED0000;}
</style>
<g xmlns="http://www.w3.org/2000/svg" id="Layer_1">
	<g>
		<path d="M37.1,39.1H4c-1.1,0-2-0.9-2-2V4c0-1.1,0.9-2,2-2h33.1c1.1,0,2,0.9,2,2v33.1C39.1,38.2,38.2,39.1,37.1,39.1z"/>
		<path class="st2" d="M37.1,40.1H4c-1.7,0-3-1.3-3-3V4c0-1.7,1.3-3,3-3h33.1c1.7,0,3,1.3,3,3v33.1C40.1,38.8,38.8,40.1,37.1,40.1z     M4,3C3.4,3,3,3.4,3,4v33.1c0,0.6,0.4,1,1,1h33.1c0.6,0,1-0.4,1-1V4c0-0.6-0.4-1-1-1H4z"/>
	</g>
	<g>
		<line x1="8.2" y1="32.9" x2="32.9" y2="8.2"/>
		<path class="st2" d="M8.2,33.9c-0.3,0-0.5-0.1-0.7-0.3c-0.4-0.4-0.4-1,0-1.4L32.2,7.5c0.4-0.4,1-0.4,1.4,0c0.4,0.4,0.4,1,0,1.4    L8.9,33.6C8.7,33.8,8.5,33.9,8.2,33.9z"/>
	</g>
	<g>
		<line x1="8.2" y1="8.2" x2="32.9" y2="32.9"/>
		<path class="st2" d="M32.9,33.9c-0.3,0-0.5-0.1-0.7-0.3L7.5,8.9c-0.4-0.4-0.4-1,0-1.4c0.4-0.4,1-0.4,1.4,0l24.7,24.7    c0.4,0.4,0.4,1,0,1.4C33.4,33.8,33.2,33.9,32.9,33.9z"/>
	</g>
	
</g>
</svg>
